<?xml version="1.0" encoding="iso-8859-1"?>
<!-- Generator: Adobe Illustrator 19.0.0, SVG Export Plug-In . SVG Version: 6.00 Build 0)  -->
<svg xmlns="http://www.w3.org/2000/svg" xmlns:xlink="http://www.w3.org/1999/xlink" version="1.1" id="Layer_1" x="0px" y="0px" viewBox="0 0 512 512" style="enable-background:new 0 0 512 512;" xml:space="preserve" width="512px" height="512px">
<g>
	<g>
		<path d="M484.766,310.468H27.234c-4.513,0-8.17,3.658-8.17,8.17v108.936c0,4.512,3.657,8.17,8.17,8.17h457.532    c4.513,0,8.17-3.658,8.17-8.17V318.638C492.936,314.126,489.279,310.468,484.766,310.468z M476.596,386.723H125.277    c-4.513,0-8.17,3.658-8.17,8.17s3.657,8.17,8.17,8.17h351.319v16.34H35.404v-16.34h57.191c4.513,0,8.17-3.658,8.17-8.17    s-3.657-8.17-8.17-8.17H35.404v-59.915h16.34v13.617c0,4.512,3.657,8.17,8.17,8.17s8.17-3.658,8.17-8.17v-13.617h16.34v13.617    c0,4.512,3.657,8.17,8.17,8.17s8.17-3.658,8.17-8.17v-13.617h16.34v13.617c0,4.512,3.657,8.17,8.17,8.17s8.17-3.658,8.17-8.17    v-13.617h16.34v13.617c0,4.512,3.657,8.17,8.17,8.17s8.17-3.658,8.17-8.17v-13.617h16.34v13.617c0,4.512,3.657,8.17,8.17,8.17    s8.17-3.658,8.17-8.17v-13.617h16.34v13.617c0,4.512,3.657,8.17,8.17,8.17s8.17-3.658,8.17-8.17v-13.617h16.34v13.617    c0,4.512,3.657,8.17,8.17,8.17s8.17-3.658,8.17-8.17v-13.617h16.34v13.617c0,4.512,3.657,8.17,8.17,8.17s8.17-3.658,8.17-8.17    v-13.617h16.34v13.617c0,4.512,3.657,8.17,8.17,8.17s8.17-3.658,8.17-8.17v-13.617h16.34v13.617c0,4.512,3.657,8.17,8.17,8.17    s8.17-3.658,8.17-8.17v-13.617h16.34v13.617c0,4.512,3.657,8.17,8.17,8.17c4.513,0,8.17-3.658,8.17-8.17v-13.617h16.34v13.617    c0,4.512,3.657,8.17,8.17,8.17c4.513,0,8.17-3.658,8.17-8.17v-13.617h16.34v13.617c0,4.512,3.657,8.17,8.17,8.17    c4.513,0,8.17-3.658,8.17-8.17v-13.617h16.34V386.723z" fill="#006DF0"/>
	</g>
</g>
<g>
	<g>
		<path d="M484.766,452.085H92.596c-0.878,0-1.75,0.142-2.583,0.419L24.651,474.29c-3.337,1.112-5.587,4.234-5.587,7.751    c0,3.516,2.25,6.639,5.586,7.751l65.362,21.789c0.833,0.278,1.705,0.419,2.584,0.419h392.17c4.513,0,8.17-3.658,8.17-8.17v-43.574    C492.936,455.743,489.279,452.085,484.766,452.085z M84.426,492.494L53.07,482.04l31.355-10.45V492.494z M389.447,495.66H100.766    v-27.234h288.681V495.66z M433.021,495.66h-27.234v-27.234h27.234V495.66z M476.596,495.66h-27.234v-27.234h27.234V495.66z" fill="#006DF0"/>
	</g>
</g>
<g>
	<g>
		<path d="M484.766,277.787H27.234c-4.513,0-8.17,3.658-8.17,8.17s3.657,8.17,8.17,8.17h457.532c4.513,0,8.17-3.658,8.17-8.17    S489.279,277.787,484.766,277.787z" fill="#006DF0"/>
	</g>
</g>
<g>
	<g>
		<path d="M92.596,174.298H27.234c-4.513,0-8.17,3.658-8.17,8.17v70.809c0,4.512,3.657,8.17,8.17,8.17c4.513,0,8.17-3.658,8.17-8.17    v-62.638h49.021v62.638c0,4.512,3.657,8.17,8.17,8.17s8.17-3.658,8.17-8.17v-70.809    C100.766,177.956,97.109,174.298,92.596,174.298z" fill="#006DF0"/>
	</g>
</g>
<g>
	<g>
		<path d="M190.638,130.723h-65.362c-4.513,0-8.17,3.658-8.17,8.17v114.383c0,4.512,3.657,8.17,8.17,8.17s8.17-3.658,8.17-8.17    V147.064h49.021v106.213c0,4.512,3.657,8.17,8.17,8.17s8.17-3.658,8.17-8.17V138.894    C198.809,134.381,195.152,130.723,190.638,130.723z" fill="#006DF0"/>
	</g>
</g>
<g>
	<g>
		<path d="M288.681,87.149h-65.362c-4.513,0-8.17,3.658-8.17,8.17v157.957c0,4.512,3.657,8.17,8.17,8.17s8.17-3.658,8.17-8.17    V103.489h49.021v149.787c0,4.512,3.657,8.17,8.17,8.17s8.17-3.658,8.17-8.17V95.319C296.851,90.807,293.194,87.149,288.681,87.149    z" fill="#006DF0"/>
	</g>
</g>
<g>
	<g>
		<path d="M386.723,43.574h-65.362c-4.513,0-8.17,3.658-8.17,8.17v201.532c0,4.512,3.657,8.17,8.17,8.17s8.17-3.658,8.17-8.17    V59.915h49.021v193.362c0,4.512,3.657,8.17,8.17,8.17c4.513,0,8.17-3.658,8.17-8.17V51.745    C394.894,47.233,391.237,43.574,386.723,43.574z" fill="#006DF0"/>
	</g>
</g>
<g>
	<g>
		<path d="M484.766,0h-65.362c-4.513,0-8.17,3.658-8.17,8.17v245.106c0,4.512,3.657,8.17,8.17,8.17c4.513,0,8.17-3.658,8.17-8.17    V16.34h49.021v236.936c0,4.512,3.657,8.17,8.17,8.17c4.513,0,8.17-3.658,8.17-8.17V8.17C492.936,3.658,489.279,0,484.766,0z" fill="#006DF0"/>
	</g>
</g>
<g>
</g>
<g>
</g>
<g>
</g>
<g>
</g>
<g>
</g>
<g>
</g>
<g>
</g>
<g>
</g>
<g>
</g>
<g>
</g>
<g>
</g>
<g>
</g>
<g>
</g>
<g>
</g>
<g>
</g>
</svg>
