<svg height="512pt" viewBox="-26 0 512 512.00081" width="512pt" xmlns="http://www.w3.org/2000/svg" xmlns:xlink="http://www.w3.org/1999/xlink"><linearGradient id="a"><stop offset="0" stop-color="#662d91"/><stop offset=".437" stop-color="#3873b3"/><stop offset="1" stop-color="#00c9dd"/></linearGradient><linearGradient id="b" gradientTransform="matrix(1.082434 0 0 -1.082434 -25.595915 502.501424)" gradientUnits="userSpaceOnUse" x1="97.4382" x2="438.8599" xlink:href="#a" y1="431.601" y2="90.1714"/><linearGradient id="c" gradientTransform="matrix(1.082434 0 0 -1.082434 -25.595915 502.501424)" gradientUnits="userSpaceOnUse" x1="72.9201" x2="414.3418" xlink:href="#a" y1="407.0829" y2="65.6612"/><path d="m227.09375.660156c-84.875 35.730469-157.289062 41.460938-215.25 17.066406-4.34375-1.828124-9.34375.210938-11.175781 4.554688-.441407 1.046875-.667969 2.175781-.667969 3.3125v207.066406c0 228.394532 226.359375 278.675782 228.644531 279.160156 1.160157.242188 2.355469.242188 3.515625 0 2.289063-.484374 228.644532-50.765624 228.644532-279.160156v-207.066406c.003906-4.710938-3.816407-8.535156-8.53125-8.535156-1.136719 0-2.261719.226562-3.3125.667968-57.964844 24.394532-130.363282 18.671876-215.246094-17.066406-2.117188-.878906-4.5-.878906-6.621094 0zm216.644531 37.34375v194.65625c0 206.507813-191.335937 256.949219-213.335937 262.070313-21.996094-5.121094-213.335938-55.605469-213.335938-262.070313v-194.65625c59.359375 20.597656 131.03125 13.796875 213.335938-20.226562 82.308594 34.015625 153.96875 40.789062 213.335937 20.226562zm0 0" fill="url(#b)"/><path d="m34.136719 238.929688c0 108.394531 87.871093 196.269531 196.265625 196.269531 108.398437 0 196.269531-87.875 196.269531-196.269531 0-108.394532-87.871094-196.269532-196.269531-196.269532-108.34375.117188-196.148438 87.921875-196.265625 196.269532zm187.734375-170.96875v86.898437c-20.8125-.839844-41.367188-4.894531-60.9375-12.023437 14.417968-29.226563 35.25-54.820313 60.9375-74.875zm0 104.023437v58.410156h-83.140625c.933593-24.644531 6.0625-48.949219 15.171875-71.867187 21.796875 8.066406 44.742187 12.609375 67.96875 13.457031zm17.066406 0c23.226562-.839844 46.175781-5.382813 67.96875-13.457031 9.105469 22.921875 14.238281 47.226562 15.171875 71.867187h-83.140625zm0-17.117187v-86.90625c25.691406 20.054687 46.523438 45.652343 60.9375 74.882812-19.570312 7.125-40.125 11.179688-60.9375 12.015625zm-93.78125-18.621094c-14.378906-6.722656-27.941406-15.0625-40.425781-24.867188 26.5-26.101562 60.480469-43.289062 97.207031-49.167968-23.71875 20.605468-43.03125 45.789062-56.78125 74.035156zm-6.914062 15.644531c-10.007813 25.015625-15.621094 51.578125-16.578126 78.507813h-70.027343c1.78125-39.078126 16.363281-76.488282 41.507812-106.457032 13.882813 11.054688 29.019531 20.433594 45.097657 27.949219zm-16.578126 95.574219c.914063 26.414062 6.296876 52.484375 15.921876 77.097656-16.503907 7.082031-32.113282 16.085938-46.507813 26.820312-23.890625-29.546874-37.710937-65.960937-39.441406-103.917968zm17.066407 0h83.140625v58.589844c-23.242188.789062-46.246094 4.992187-68.269532 12.476562-8.914062-22.6875-13.941406-46.710938-14.871093-71.066406zm83.140625 75.605468v86.828126c-25.957032-20.265626-46.949219-46.179688-61.382813-75.777344 19.832031-6.582032 40.5-10.300782 61.382813-11.050782zm17.066406 86.828126v-86.828126c20.878906.765626 41.539062 4.5 61.363281 11.09375-14.429687 29.582032-35.417969 55.480469-61.363281 75.734376zm0-103.863282v-58.574218h83.140625c-.910156 24.332031-5.917969 48.339843-14.804687 71.007812-22.046876-7.46875-45.070313-11.660156-68.335938-12.433594zm100.210938-58.570312h70.023437c-1.726563 37.976562-15.558594 74.40625-39.476563 103.960937-14.398437-10.714843-30.011718-19.699219-46.511718-26.769531 9.648437-24.640625 15.046875-50.742188 15.964844-77.191406zm0-17.066406c-.949219-26.929688-6.546876-53.488282-16.539063-78.507813 16.0625-7.503906 31.183594-16.871094 45.054687-27.90625 25.136719 29.957031 39.722657 67.347656 41.507813 106.414063zm-23.496094-94.152344c-13.753906-28.246094-33.066406-53.429688-56.78125-74.035156 36.726562 5.875 70.703125 23.0625 97.195312 49.167968-12.476562 9.804688-26.039062 18.148438-40.414062 24.867188zm-213.164063 227.957031c13.019531-9.582031 27.097657-17.640625 41.949219-24.023437 13.800781 28.824218 33.371094 54.511718 57.5 75.46875-37.804688-6.058594-72.664062-24.09375-99.449219-51.445313zm156.382813 51.445313c24.105468-20.933594 43.65625-46.589844 57.449218-75.382813 14.859376 6.359375 28.945313 14.390625 41.984376 23.945313-26.78125 27.351562-61.636719 45.382812-99.433594 51.4375zm0 0" fill="url(#c)"/></svg>